<svg width="512" height="512" version="1.1" xmlns="http://www.w3.org/2000/svg" desc="Created with imagetracer.js version 1.2.6" ><path fill="rgb(66,69,54)" stroke="rgb(66,69,54)" stroke-width="1" opacity="0.8549019607843137" d="M 227.5 193 L 225.5 196 L 227.5 193 Z " /><path fill="rgb(66,69,54)" stroke="rgb(66,69,54)" stroke-width="1" opacity="0.8549019607843137" d="M 236.5 193 L 238.5 196 L 236.5 193 Z " /><path fill="rgb(66,69,54)" stroke="rgb(66,69,54)" stroke-width="1" opacity="0.8549019607843137" d="M 275.5 193 L 273.5 196 L 275.5 193 Z " /><path fill="rgb(66,69,54)" stroke="rgb(66,69,54)" stroke-width="1" opacity="0.8549019607843137" d="M 284.5 193 L 286.5 196 L 284.5 193 Z " /><path fill="rgb(66,69,54)" stroke="rgb(66,69,54)" stroke-width="1" opacity="0.8549019607843137" d="M 225.5 204 L 227.5 207 L 225.5 204 Z " /><path fill="rgb(66,69,54)" stroke="rgb(66,69,54)" stroke-width="1" opacity="0.8549019607843137" d="M 238.5 204 L 236.5 207 L 238.5 204 Z " /><path fill="rgb(66,69,54)" stroke="rgb(66,69,54)" stroke-width="1" opacity="0.8549019607843137" d="M 273.5 204 L 275.5 207 L 273.5 204 Z " /><path fill="rgb(66,69,54)" stroke="rgb(66,69,54)" stroke-width="1" opacity="0.8549019607843137" d="M 286.5 204 L 284.5 207 L 286.5 204 Z " /><path fill="rgb(66,69,54)" stroke="rgb(66,69,54)" stroke-width="1" opacity="0.8549019607843137" d="M 219.5 225 L 217.5 228 L 219.5 225 Z " /><path fill="rgb(66,69,54)" stroke="rgb(66,69,54)" stroke-width="1" opacity="0.8549019607843137" d="M 228.5 225 L 230.5 228 L 228.5 225 Z " /><path fill="rgb(66,69,54)" stroke="rgb(66,69,54)" stroke-width="1" opacity="0.8549019607843137" d="M 283.5 225 L 281.5 228 L 283.5 225 Z " /><path fill="rgb(66,69,54)" stroke="rgb(66,69,54)" stroke-width="1" opacity="0.8549019607843137" d="M 292.5 225 L 294.5 228 L 292.5 225 Z " /><path fill="rgb(66,69,54)" stroke="rgb(66,69,54)" stroke-width="1" opacity="0.8549019607843137" d="M 216.5 234 L 217 237.5 L 216 237.5 L 216.5 234 Z " /><path fill="rgb(66,69,54)" stroke="rgb(66,69,54)" stroke-width="1" opacity="0.8549019607843137" d="M 295.5 234 L 296 236.5 L 295 236.5 L 295.5 234 Z " /><path fill="rgb(66,69,54)" stroke="rgb(66,69,54)" stroke-width="1" opacity="0.8549019607843137" d="M 236.5 246 L 241.5 252 L 236.5 246 Z " /><path fill="rgb(66,69,54)" stroke="rgb(66,69,54)" stroke-width="1" opacity="0.8549019607843137" d="M 275.5 246 L 270.5 252 L 275.5 246 Z " /><path fill="rgb(66,69,54)" stroke="rgb(66,69,54)" stroke-width="1" opacity="0.8549019607843137" d="M 225.5 257 L 230.5 263 L 225.5 257 Z " /><path fill="rgb(66,69,54)" stroke="rgb(66,69,54)" stroke-width="1" opacity="0.8549019607843137" d="M 286.5 257 L 281.5 263 L 286.5 257 Z " /><path fill="rgb(66,69,54)" stroke="rgb(66,69,54)" stroke-width="1" opacity="0.8549019607843137" d="M 251.5 271 L 254 271.5 L 251.5 272 L 251.5 271 Z " /><path fill="rgb(66,69,54)" stroke="rgb(66,69,54)" stroke-width="1" opacity="0.8549019607843137" d="M 258.5 271 L 261 271.5 L 258.5 272 L 258.5 271 Z " /><path fill="rgb(38,50,56)" stroke="rgb(38,50,56)" stroke-width="1" opacity="1" d="M 69.5 88 L 442.5 88 L 447 91.5 L 448 93.5 L 448 354.5 L 444.5 359 L 442.5 360 L 300 360 L 264 419.5 L 260.5 423 L 253.5 424 L 248 419.5 L 212 360 L 69.5 360 L 65 356.5 L 64 354.5 L 64 93.5 L 67.5 89 L 69.5 88 Z M 80 104 L 80 344 L 217 344 L 220 345 L 227 355 L 255 400 Q 254 402 257 401 L 289 349 L 296 344 L 432 344 L 432 104 L 80 104 Z " /><path fill="rgb(38,50,56)" stroke="rgb(38,50,56)" stroke-width="1" opacity="1" d="M 231.5 192 Q 237.1 192.5 239 196.5 L 240 200.5 L 235.5 207 L 231.5 208 L 225 203.5 L 224 199.5 L 228.5 193 L 231.5 192 Z " /><path fill="rgb(38,50,56)" stroke="rgb(38,50,56)" stroke-width="1" opacity="1" d="M 279.5 192 Q 285.1 192.5 287 196.5 L 288 200.5 L 283.5 207 L 279.5 208 L 273 203.5 L 272 199.5 L 276.5 193 L 279.5 192 Z " /><path fill="rgb(38,50,56)" stroke="rgb(38,50,56)" stroke-width="1" opacity="1" d="M 223.5 224 Q 229.1 224.5 231 228.5 L 233 240.5 Q 235.6 247.9 241.5 252 Q 247.8 257.7 261.5 256 Q 271.1 253.6 276 246.5 L 280 237.5 L 281 228.5 L 284.5 225 L 288.5 224 L 295 228.5 L 296 233.5 L 294 244.5 L 289 254.5 L 278.5 265 L 268.5 270 L 254.5 272 L 243.5 270 L 233.5 265 L 223 254.5 L 218 244.5 L 216 231.5 L 220.5 225 L 223.5 224 Z " /><path fill="rgb(0,0,0)" stroke="rgb(0,0,0)" stroke-width="1" opacity="0" d="M 0 0 L 512 0 L 512 512 L 0 512 L 0 0 Z M 70 88 L 68 89 L 64 94 L 64 355 L 65 357 L 70 360 L 212 360 L 248 420 L 254 424 L 261 423 L 264 420 L 300 360 L 443 360 L 445 359 L 448 355 L 448 94 L 447 92 L 443 88 L 70 88 Z " /><path fill="rgb(252,223,55)" stroke="rgb(252,223,55)" stroke-width="1" opacity="1" d="M 244.5 144 L 249 144.5 L 244.5 145 L 244.5 144 Z " /><path fill="rgb(252,223,55)" stroke="rgb(252,223,55)" stroke-width="1" opacity="1" d="M 263.5 144 L 268 144.5 L 263.5 145 L 263.5 144 Z " /><path fill="rgb(252,223,55)" stroke="rgb(252,223,55)" stroke-width="1" opacity="1" d="M 239.5 145 L 242 145.5 L 239.5 146 L 239.5 145 Z " /><path fill="rgb(252,223,55)" stroke="rgb(252,223,55)" stroke-width="1" opacity="1" d="M 221.5 151 L 223 151.5 L 218.5 154 L 219.5 152 L 221.5 151 Z " /><path fill="rgb(252,223,55)" stroke="rgb(252,223,55)" stroke-width="1" opacity="1" d="M 292.5 152 L 293.5 154 L 292.5 152 Z " /><path fill="rgb(252,223,55)" stroke="rgb(252,223,55)" stroke-width="1" opacity="1" d="M 208.5 159 L 207.5 161 L 208.5 159 Z " /><path fill="rgb(252,223,55)" stroke="rgb(252,223,55)" stroke-width="1" opacity="1" d="M 303.5 159 L 304.5 161 L 303.5 159 Z " /><path fill="rgb(252,223,55)" stroke="rgb(252,223,55)" stroke-width="1" opacity="1" d="M 204.5 162 L 194.5 173 L 204.5 162 Z " /><path fill="rgb(252,223,55)" stroke="rgb(252,223,55)" stroke-width="1" opacity="1" d="M 307.5 162 L 317.5 173 L 307.5 162 Z " /><path fill="rgb(252,223,55)" stroke="rgb(252,223,55)" stroke-width="1" opacity="1" d="M 192.5 175 L 191.5 177 L 192.5 175 Z " /><path fill="rgb(252,223,55)" stroke="rgb(252,223,55)" stroke-width="1" opacity="1" d="M 319.5 175 L 320.5 177 L 319.5 175 Z " /><path fill="rgb(252,223,55)" stroke="rgb(252,223,55)" stroke-width="1" opacity="1" d="M 185.5 186 L 184.5 188 L 185.5 186 Z " /><path fill="rgb(252,223,55)" stroke="rgb(252,223,55)" stroke-width="1" opacity="1" d="M 326.5 186 L 327.5 188 L 326.5 186 Z " /><path fill="rgb(252,223,55)" stroke="rgb(252,223,55)" stroke-width="1" opacity="1" d="M 334.5 207 L 335 209.5 L 334 209.5 L 334.5 207 Z " /><path fill="rgb(252,223,55)" stroke="rgb(252,223,55)" stroke-width="1" opacity="1" d="M 176.5 213 L 177 216.5 L 176 216.5 L 176.5 213 Z " /><path fill="rgb(252,223,55)" stroke="rgb(252,223,55)" stroke-width="1" opacity="1" d="M 335.5 213 L 336 216.5 L 335 216.5 L 335.5 213 Z " /><path fill="rgb(252,223,55)" stroke="rgb(252,223,55)" stroke-width="1" opacity="1" d="M 176.5 231 L 177 234.5 L 176 234.5 L 176.5 231 Z " /><path fill="rgb(252,223,55)" stroke="rgb(252,223,55)" stroke-width="1" opacity="1" d="M 335.5 231 L 336 235.5 L 335 235.5 L 335.5 231 Z " /><path fill="rgb(252,223,55)" stroke="rgb(252,223,55)" stroke-width="1" opacity="1" d="M 177.5 238 L 178 240.5 L 177 240.5 L 177.5 238 Z " /><path fill="rgb(252,223,55)" stroke="rgb(252,223,55)" stroke-width="1" opacity="1" d="M 334.5 238 L 335 240.5 L 334 240.5 L 334.5 238 Z " /><path fill="rgb(252,223,55)" stroke="rgb(252,223,55)" stroke-width="1" opacity="1" d="M 328.5 257 L 329 258.5 L 327 259.5 L 328.5 257 Z " /><path fill="rgb(252,223,55)" stroke="rgb(252,223,55)" stroke-width="1" opacity="1" d="M 191.5 271 L 192.5 273 L 191.5 271 Z " /><path fill="rgb(252,223,55)" stroke="rgb(252,223,55)" stroke-width="1" opacity="1" d="M 320.5 271 L 319.5 273 L 320.5 271 Z " /><path fill="rgb(252,223,55)" stroke="rgb(252,223,55)" stroke-width="1" opacity="1" d="M 194.5 275 L 204.5 286 L 194.5 275 Z " /><path fill="rgb(252,223,55)" stroke="rgb(252,223,55)" stroke-width="1" opacity="1" d="M 317.5 275 L 307.5 286 L 317.5 275 Z " /><path fill="rgb(252,223,55)" stroke="rgb(252,223,55)" stroke-width="1" opacity="1" d="M 207.5 287 L 208.5 289 L 207.5 287 Z " /><path fill="rgb(252,223,55)" stroke="rgb(252,223,55)" stroke-width="1" opacity="1" d="M 304.5 287 L 303.5 289 L 304.5 287 Z " /><path fill="rgb(252,223,55)" stroke="rgb(252,223,55)" stroke-width="1" opacity="1" d="M 293.5 294 L 292.5 296 L 293.5 294 Z " /><path fill="rgb(252,223,55)" stroke="rgb(252,223,55)" stroke-width="1" opacity="1" d="M 239.5 302 L 242 302.5 L 239.5 303 L 239.5 302 Z " /><path fill="rgb(252,223,55)" stroke="rgb(252,223,55)" stroke-width="1" opacity="1" d="M 270.5 302 L 273 302.5 L 270.5 303 L 270.5 302 Z " /><path fill="rgb(252,223,55)" stroke="rgb(252,223,55)" stroke-width="1" opacity="1" d="M 245.5 303 L 249 303.5 L 245.5 304 L 245.5 303 Z " /><path fill="rgb(252,223,55)" stroke="rgb(252,223,55)" stroke-width="1" opacity="1" d="M 263.5 303 L 267 303.5 L 263.5 304 L 263.5 303 Z " /><path fill="rgb(210,171,49)" stroke="rgb(210,171,49)" stroke-width="1" opacity="1" d="M 232.5 234 L 233 236.5 L 232 236.5 L 232.5 234 Z " /><path fill="rgb(210,171,49)" stroke="rgb(210,171,49)" stroke-width="1" opacity="1" d="M 279.5 234 L 280 236.5 L 279 236.5 L 279.5 234 Z " /><path fill="rgb(210,171,49)" stroke="rgb(210,171,49)" stroke-width="1" opacity="1" d="M 295.5 237 L 296 239.5 L 295 239.5 L 295.5 237 Z " /><path fill="rgb(210,171,49)" stroke="rgb(210,171,49)" stroke-width="1" opacity="1" d="M 235.5 244 L 236.5 246 L 235.5 244 Z " /><path fill="rgb(210,171,49)" stroke="rgb(210,171,49)" stroke-width="1" opacity="1" d="M 276.5 244 L 275.5 246 L 276.5 244 Z " /><path fill="rgb(210,171,49)" stroke="rgb(210,171,49)" stroke-width="1" opacity="1" d="M 242.5 251 L 243.5 253 L 242.5 251 Z " /><path fill="rgb(210,171,49)" stroke="rgb(210,171,49)" stroke-width="1" opacity="1" d="M 269.5 251 L 268.5 253 L 269.5 251 Z " /><path fill="rgb(210,171,49)" stroke="rgb(210,171,49)" stroke-width="1" opacity="1" d="M 222.5 254 L 224.5 257 L 222.5 254 Z " /><path fill="rgb(210,171,49)" stroke="rgb(210,171,49)" stroke-width="1" opacity="1" d="M 289.5 254 L 287.5 257 L 289.5 254 Z " /><path fill="rgb(210,171,49)" stroke="rgb(210,171,49)" stroke-width="1" opacity="1" d="M 251.5 255 L 254 255.5 L 251.5 256 L 251.5 255 Z " /><path fill="rgb(210,171,49)" stroke="rgb(210,171,49)" stroke-width="1" opacity="1" d="M 258.5 255 L 261 255.5 L 258.5 256 L 258.5 255 Z " /><path fill="rgb(210,171,49)" stroke="rgb(210,171,49)" stroke-width="1" opacity="1" d="M 226.5 259 L 228.5 262 L 226.5 259 Z " /><path fill="rgb(210,171,49)" stroke="rgb(210,171,49)" stroke-width="1" opacity="1" d="M 285.5 259 L 283.5 262 L 285.5 259 Z " /><path fill="rgb(210,171,49)" stroke="rgb(210,171,49)" stroke-width="1" opacity="1" d="M 231.5 263 L 233.5 266 L 231.5 263 Z " /><path fill="rgb(210,171,49)" stroke="rgb(210,171,49)" stroke-width="1" opacity="1" d="M 280.5 263 L 278.5 266 L 280.5 263 Z " /><path fill="rgb(210,171,49)" stroke="rgb(210,171,49)" stroke-width="1" opacity="1" d="M 248.5 271 L 251 271.5 L 248.5 272 L 248.5 271 Z " /><path fill="rgb(210,171,49)" stroke="rgb(210,171,49)" stroke-width="1" opacity="1" d="M 261.5 271 L 264 271.5 L 261.5 272 L 261.5 271 Z " /><path fill="rgb(210,171,49)" stroke="rgb(210,171,49)" stroke-width="1" opacity="1" d="M 222.5 347 L 223.5 349 L 222.5 347 Z " /><path fill="rgb(210,171,49)" stroke="rgb(210,171,49)" stroke-width="1" opacity="1" d="M 289.5 347 L 288.5 349 L 289.5 347 Z " /><path fill="rgb(251,192,45)" stroke="rgb(251,192,45)" stroke-width="1" opacity="1" d="M 249.5 144 L 270.5 145 L 291.5 152 Q 308 160.5 319 174.5 Q 328.3 185.7 333 201.5 L 336 217.5 L 336 230.5 L 333 246.5 L 324 266.5 L 305.5 287 Q 294.3 296.3 278.5 301 L 262.5 304 L 249.5 304 L 233.5 301 L 218.5 295 Q 203.4 286.6 193 273.5 Q 183.7 262.3 179 246.5 L 176 230.5 L 176 217.5 L 179 201.5 L 184 188.5 Q 192.5 172 206.5 161 L 227.5 149 L 249.5 144 Z M 229 192 Q 222 194 224 204 Q 226 210 236 208 Q 242 206 240 197 Q 238 190 229 192 Z M 277 192 Q 270 194 272 204 Q 274 210 284 208 Q 290 206 288 197 Q 286 190 277 192 Z M 221 224 L 216 229 L 217 244 Q 220 253 226 260 Q 234 269 249 272 Q 260 274 268 271 Q 277 268 284 262 Q 290 256 294 247 L 296 240 L 296 229 Q 294 222 285 224 L 280 229 Q 280 240 275 247 L 268 253 L 258 256 Q 247 256 242 251 Q 232 245 232 229 Q 230 222 221 224 Z " /><path fill="rgb(255,234,59)" stroke="rgb(255,234,59)" stroke-width="1" opacity="1" d="M 210.5 157 L 209.5 159 L 210.5 157 Z " /><path fill="rgb(255,234,59)" stroke="rgb(255,234,59)" stroke-width="1" opacity="1" d="M 206.5 160 L 205.5 162 L 206.5 160 Z " /><path fill="rgb(255,234,59)" stroke="rgb(255,234,59)" stroke-width="1" opacity="1" d="M 305.5 160 L 306.5 162 L 305.5 160 Z " /><path fill="rgb(255,234,59)" stroke="rgb(255,234,59)" stroke-width="1" opacity="1" d="M 193.5 173 L 192.5 175 L 193.5 173 Z " /><path fill="rgb(255,234,59)" stroke="rgb(255,234,59)" stroke-width="1" opacity="1" d="M 318.5 173 L 319.5 175 L 318.5 173 Z " /><path fill="rgb(255,234,59)" stroke="rgb(255,234,59)" stroke-width="1" opacity="1" d="M 321.5 177 L 322.5 179 L 321.5 177 Z " /><path fill="rgb(255,234,59)" stroke="rgb(255,234,59)" stroke-width="1" opacity="1" d="M 322.5 269 L 321.5 271 L 322.5 269 Z " /><path fill="rgb(255,234,59)" stroke="rgb(255,234,59)" stroke-width="1" opacity="1" d="M 192.5 273 L 193.5 275 L 192.5 273 Z " /><path fill="rgb(255,234,59)" stroke="rgb(255,234,59)" stroke-width="1" opacity="1" d="M 319.5 273 L 318.5 275 L 319.5 273 Z " /><path fill="rgb(255,234,59)" stroke="rgb(255,234,59)" stroke-width="1" opacity="1" d="M 205.5 286 L 206.5 288 L 205.5 286 Z " /><path fill="rgb(255,234,59)" stroke="rgb(255,234,59)" stroke-width="1" opacity="1" d="M 306.5 286 L 305.5 288 L 306.5 286 Z " /><path fill="rgb(255,234,59)" stroke="rgb(255,234,59)" stroke-width="1" opacity="1" d="M 221.5 345 L 222.5 347 L 221.5 345 Z " /><path fill="rgb(255,234,59)" stroke="rgb(255,234,59)" stroke-width="1" opacity="1" d="M 290.5 345 L 289.5 347 L 290.5 345 Z " /><path fill="rgb(255,235,59)" stroke="rgb(255,235,59)" stroke-width="1" opacity="1" d="M 80 104 L 432 104 L 432 344 L 292.5 344 L 289 346.5 L 257 399 Q 254.3 400.1 255 397.5 L 221.5 345 L 219.5 344 L 80 344 L 80 104 Z M 244 144 Q 221 148 207 160 Q 183 177 176 212 L 176 236 L 178 246 Q 183 262 192 274 Q 210 297 245 304 L 269 304 L 278 302 Q 294 297 306 288 Q 329 271 336 237 L 336 212 L 334 203 Q 329 186 320 175 Q 307 158 287 149 L 269 144 L 244 144 Z " /></svg>