<svg width="512" height="512" version="1.1" xmlns="http://www.w3.org/2000/svg" desc="Created with imagetracer.js version 1.2.6" ><path fill="rgb(93,65,113)" stroke="rgb(93,65,113)" stroke-width="1" opacity="1" d="M 168.5 120 L 216 120.5 L 168.5 121 L 168.5 120 Z " /><path fill="rgb(93,65,113)" stroke="rgb(93,65,113)" stroke-width="1" opacity="1" d="M 296.5 120 L 344 120.5 L 296.5 121 L 296.5 120 Z " /><path fill="rgb(93,65,113)" stroke="rgb(93,65,113)" stroke-width="1" opacity="1" d="M 162.5 122 L 159.5 126 L 162.5 122 Z " /><path fill="rgb(93,65,113)" stroke="rgb(93,65,113)" stroke-width="1" opacity="1" d="M 349.5 122 L 352.5 126 L 349.5 122 Z " /><path fill="rgb(93,65,113)" stroke="rgb(93,65,113)" stroke-width="1" opacity="1" d="M 157.5 385 L 158 387.5 L 157 387.5 L 157.5 385 Z " /><path fill="rgb(93,65,113)" stroke="rgb(93,65,113)" stroke-width="1" opacity="1" d="M 354.5 385 L 355 387.5 L 354 387.5 L 354.5 385 Z " /><path fill="rgb(93,65,113)" stroke="rgb(93,65,113)" stroke-width="1" opacity="1" d="M 159.5 391 L 162.5 395 L 159.5 391 Z " /><path fill="rgb(93,65,113)" stroke="rgb(93,65,113)" stroke-width="1" opacity="1" d="M 352.5 391 L 349.5 395 L 352.5 391 Z " /><path fill="rgb(93,65,113)" stroke="rgb(93,65,113)" stroke-width="1" opacity="1" d="M 166.5 396 L 346 396.5 L 166.5 397 L 166.5 396 Z " /><path fill="rgb(55,42,115)" stroke="rgb(55,42,115)" stroke-width="1" opacity="0.5725490196078431" d="M 236.5 17 L 253 17.5 L 236.5 18 L 236.5 17 Z " /><path fill="rgb(55,42,115)" stroke="rgb(55,42,115)" stroke-width="1" opacity="0.5725490196078431" d="M 259.5 17 L 276 17.5 L 259.5 18 L 259.5 17 Z " /><path fill="rgb(55,42,115)" stroke="rgb(55,42,115)" stroke-width="1" opacity="0.5725490196078431" d="M 226.5 18 L 234 18.5 L 226.5 19 L 226.5 18 Z " /><path fill="rgb(55,42,115)" stroke="rgb(55,42,115)" stroke-width="1" opacity="0.5725490196078431" d="M 278.5 18 L 286 18.5 L 278.5 19 L 278.5 18 Z " /><path fill="rgb(55,42,115)" stroke="rgb(55,42,115)" stroke-width="1" opacity="0.5725490196078431" d="M 219.5 19 L 225 19.5 L 219.5 20 L 219.5 19 Z " /><path fill="rgb(55,42,115)" stroke="rgb(55,42,115)" stroke-width="1" opacity="0.5725490196078431" d="M 287.5 19 L 293 19.5 L 287.5 20 L 287.5 19 Z " /><path fill="rgb(55,42,115)" stroke="rgb(55,42,115)" stroke-width="1" opacity="0.5725490196078431" d="M 213.5 20 L 218 20.5 L 213.5 21 L 213.5 20 Z " /><path fill="rgb(55,42,115)" stroke="rgb(55,42,115)" stroke-width="1" opacity="0.5725490196078431" d="M 294.5 20 L 299 20.5 L 294.5 21 L 294.5 20 Z " /><path fill="rgb(55,42,115)" stroke="rgb(55,42,115)" stroke-width="1" opacity="0.5725490196078431" d="M 208.5 21 L 212 21.5 L 208.5 22 L 208.5 21 Z " /><path fill="rgb(55,42,115)" stroke="rgb(55,42,115)" stroke-width="1" opacity="0.5725490196078431" d="M 300.5 21 L 304 21.5 L 300.5 22 L 300.5 21 Z " /><path fill="rgb(55,42,115)" stroke="rgb(55,42,115)" stroke-width="1" opacity="0.5725490196078431" d="M 204.5 22 L 207 22.5 L 204.5 23 L 204.5 22 Z " /><path fill="rgb(55,42,115)" stroke="rgb(55,42,115)" stroke-width="1" opacity="0.5725490196078431" d="M 305.5 22 L 308 22.5 L 305.5 23 L 305.5 22 Z " /><path fill="rgb(55,42,115)" stroke="rgb(55,42,115)" stroke-width="1" opacity="0.5725490196078431" d="M 199.5 23 L 203 23.5 L 199.5 24 L 199.5 23 Z " /><path fill="rgb(55,42,115)" stroke="rgb(55,42,115)" stroke-width="1" opacity="0.5725490196078431" d="M 309.5 23 L 313 23.5 L 309.5 24 L 309.5 23 Z " /><path fill="rgb(55,42,115)" stroke="rgb(55,42,115)" stroke-width="1" opacity="0.5725490196078431" d="M 195.5 24 L 198 24.5 L 192.5 26 L 192.5 25 L 195.5 24 Z " /><path fill="rgb(55,42,115)" stroke="rgb(55,42,115)" stroke-width="1" opacity="0.5725490196078431" d="M 314.5 24 L 317 24.5 L 314.5 25 L 314.5 24 Z " /><path fill="rgb(55,42,115)" stroke="rgb(55,42,115)" stroke-width="1" opacity="0.5725490196078431" d="M 188.5 26 L 191 26.5 L 188.5 27 L 188.5 26 Z " /><path fill="rgb(55,42,115)" stroke="rgb(55,42,115)" stroke-width="1" opacity="0.5725490196078431" d="M 321.5 26 L 324 26.5 L 321.5 27 L 321.5 26 Z " /><path fill="rgb(55,42,115)" stroke="rgb(55,42,115)" stroke-width="1" opacity="0.5725490196078431" d="M 173.5 31 L 175 31.5 L 161.5 37 L 161.5 36 L 173.5 31 Z " /><path fill="rgb(55,42,115)" stroke="rgb(55,42,115)" stroke-width="1" opacity="0.5725490196078431" d="M 340.5 32 L 344 33.5 L 342.5 34 L 340.5 32 Z " /><path fill="rgb(55,42,115)" stroke="rgb(55,42,115)" stroke-width="1" opacity="0.5725490196078431" d="M 345.5 34 L 349 35.5 L 347.5 36 L 345.5 34 Z " /><path fill="rgb(55,42,115)" stroke="rgb(55,42,115)" stroke-width="1" opacity="0.5725490196078431" d="M 350.5 36 Q 401.2 57.8 435 96.5 Q 460.4 124.1 476 161.5 L 475 161.5 Q 454.1 112.9 417.5 80 Q 400.6 64.4 380.5 52 L 350.5 37 L 350.5 36 Z " /><path fill="rgb(55,42,115)" stroke="rgb(55,42,115)" stroke-width="1" opacity="0.5725490196078431" d="M 158.5 37 L 160 37.5 Q 111.9 58.9 79 95.5 Q 52.8 123.8 36.5 162 L 36 160.5 Q 58.4 110.9 96.5 77 Q 123.2 52.7 158.5 37 Z " /><path fill="rgb(55,42,115)" stroke="rgb(55,42,115)" stroke-width="1" opacity="0.5725490196078431" d="M 35.5 163 L 36 164.5 L 34.5 167 L 34 165.5 L 35.5 163 Z " /><path fill="rgb(55,42,115)" stroke="rgb(55,42,115)" stroke-width="1" opacity="0.5725490196078431" d="M 476.5 163 L 478 166.5 L 477 166.5 L 476.5 163 Z " /><path fill="rgb(55,42,115)" stroke="rgb(55,42,115)" stroke-width="1" opacity="0.5725490196078431" d="M 33.5 168 L 34 169.5 L 31.5 175 L 31 173.5 L 33.5 168 Z " /><path fill="rgb(55,42,115)" stroke="rgb(55,42,115)" stroke-width="1" opacity="0.5725490196078431" d="M 478.5 168 L 481 174.5 L 480 174.5 L 478.5 168 Z " /><path fill="rgb(55,42,115)" stroke="rgb(55,42,115)" stroke-width="1" opacity="0.5725490196078431" d="M 484.5 185 L 486 190.5 L 485 190.5 L 484.5 185 Z " /><path fill="rgb(55,42,115)" stroke="rgb(55,42,115)" stroke-width="1" opacity="0.5725490196078431" d="M 26.5 188 L 27 190.5 L 26 190.5 L 26.5 188 Z " /><path fill="rgb(55,42,115)" stroke="rgb(55,42,115)" stroke-width="1" opacity="0.5725490196078431" d="M 25.5 192 L 26 194.5 L 24.5 198 L 24 195.5 L 25.5 192 Z " /><path fill="rgb(55,42,115)" stroke="rgb(55,42,115)" stroke-width="1" opacity="0.5725490196078431" d="M 486.5 192 L 488 197.5 L 487 197.5 L 486.5 192 Z " /><path fill="rgb(55,42,115)" stroke="rgb(55,42,115)" stroke-width="1" opacity="0.5725490196078431" d="M 23.5 199 L 24 202.5 L 23 202.5 L 23.5 199 Z " /><path fill="rgb(55,42,115)" stroke="rgb(55,42,115)" stroke-width="1" opacity="0.5725490196078431" d="M 488.5 199 L 489 202.5 L 488 202.5 L 488.5 199 Z " /><path fill="rgb(55,42,115)" stroke="rgb(55,42,115)" stroke-width="1" opacity="0.5725490196078431" d="M 22.5 204 L 23 206.5 L 22 206.5 L 22.5 204 Z " /><path fill="rgb(55,42,115)" stroke="rgb(55,42,115)" stroke-width="1" opacity="0.5725490196078431" d="M 489.5 204 L 490 206.5 L 489 206.5 L 489.5 204 Z " /><path fill="rgb(55,42,115)" stroke="rgb(55,42,115)" stroke-width="1" opacity="0.5725490196078431" d="M 21.5 208 L 22 211.5 L 21 211.5 L 21.5 208 Z " /><path fill="rgb(55,42,115)" stroke="rgb(55,42,115)" stroke-width="1" opacity="0.5725490196078431" d="M 490.5 208 L 491 212.5 L 490 212.5 L 490.5 208 Z " /><path fill="rgb(55,42,115)" stroke="rgb(55,42,115)" stroke-width="1" opacity="0.5725490196078431" d="M 20.5 213 L 21 217.5 L 20 217.5 L 20.5 213 Z " /><path fill="rgb(55,42,115)" stroke="rgb(55,42,115)" stroke-width="1" opacity="0.5725490196078431" d="M 491.5 214 L 492 217.5 L 491 217.5 L 491.5 214 Z " /><path fill="rgb(55,42,115)" stroke="rgb(55,42,115)" stroke-width="1" opacity="0.5725490196078431" d="M 19.5 219 L 20 224.5 L 19 224.5 L 19.5 219 Z " /><path fill="rgb(55,42,115)" stroke="rgb(55,42,115)" stroke-width="1" opacity="0.5725490196078431" d="M 492.5 219 L 493 224.5 L 492 224.5 L 492.5 219 Z " /><path fill="rgb(55,42,115)" stroke="rgb(55,42,115)" stroke-width="1" opacity="0.5725490196078431" d="M 18.5 226 L 19 233.5 L 18 233.5 L 18.5 226 Z " /><path fill="rgb(55,42,115)" stroke="rgb(55,42,115)" stroke-width="1" opacity="0.5725490196078431" d="M 493.5 227 L 494 233.5 L 493 233.5 L 493.5 227 Z " /><path fill="rgb(55,42,115)" stroke="rgb(55,42,115)" stroke-width="1" opacity="0.5725490196078431" d="M 17.5 236 L 18 253.5 L 17 253.5 L 17.5 236 Z " /><path fill="rgb(55,42,115)" stroke="rgb(55,42,115)" stroke-width="1" opacity="0.5725490196078431" d="M 494.5 236 L 495 254.5 L 494 254.5 L 494.5 236 Z " /><path fill="rgb(55,42,115)" stroke="rgb(55,42,115)" stroke-width="1" opacity="0.5725490196078431" d="M 494.5 257 L 495 274.5 L 494 274.5 L 494.5 257 Z " /><path fill="rgb(55,42,115)" stroke="rgb(55,42,115)" stroke-width="1" opacity="0.5725490196078431" d="M 17.5 258 L 18 275.5 L 17 275.5 L 17.5 258 Z " /><path fill="rgb(55,42,115)" stroke="rgb(55,42,115)" stroke-width="1" opacity="0.5725490196078431" d="M 18.5 278 L 19 285.5 L 18 285.5 L 18.5 278 Z " /><path fill="rgb(55,42,115)" stroke="rgb(55,42,115)" stroke-width="1" opacity="0.5725490196078431" d="M 493.5 278 L 494 284.5 L 493 284.5 L 493.5 278 Z " /><path fill="rgb(55,42,115)" stroke="rgb(55,42,115)" stroke-width="1" opacity="0.5725490196078431" d="M 19.5 287 L 20 292.5 L 19 292.5 L 19.5 287 Z " /><path fill="rgb(55,42,115)" stroke="rgb(55,42,115)" stroke-width="1" opacity="0.5725490196078431" d="M 492.5 287 L 493 292.5 L 492 292.5 L 492.5 287 Z " /><path fill="rgb(55,42,115)" stroke="rgb(55,42,115)" stroke-width="1" opacity="0.5725490196078431" d="M 20.5 294 L 21 298.5 L 20 298.5 L 20.5 294 Z " /><path fill="rgb(55,42,115)" stroke="rgb(55,42,115)" stroke-width="1" opacity="0.5725490196078431" d="M 491.5 294 L 492 297.5 L 491 297.5 L 491.5 294 Z " /><path fill="rgb(55,42,115)" stroke="rgb(55,42,115)" stroke-width="1" opacity="0.5725490196078431" d="M 490.5 299 L 491 303.5 L 490 303.5 L 490.5 299 Z " /><path fill="rgb(55,42,115)" stroke="rgb(55,42,115)" stroke-width="1" opacity="0.5725490196078431" d="M 21.5 300 L 22 303.5 L 21 303.5 L 21.5 300 Z " /><path fill="rgb(55,42,115)" stroke="rgb(55,42,115)" stroke-width="1" opacity="0.5725490196078431" d="M 22.5 305 L 23 307.5 L 22 307.5 L 22.5 305 Z " /><path fill="rgb(55,42,115)" stroke="rgb(55,42,115)" stroke-width="1" opacity="0.5725490196078431" d="M 489.5 305 L 490 307.5 L 489 307.5 L 489.5 305 Z " /><path fill="rgb(55,42,115)" stroke="rgb(55,42,115)" stroke-width="1" opacity="0.5725490196078431" d="M 23.5 309 L 24 312.5 L 23 312.5 L 23.5 309 Z " /><path fill="rgb(55,42,115)" stroke="rgb(55,42,115)" stroke-width="1" opacity="0.5725490196078431" d="M 488.5 309 L 489 312.5 L 486.5 320 L 486 317.5 L 488.5 309 Z " /><path fill="rgb(55,42,115)" stroke="rgb(55,42,115)" stroke-width="1" opacity="0.5725490196078431" d="M 24.5 314 L 26 319.5 L 25 319.5 L 24.5 314 Z " /><path fill="rgb(55,42,115)" stroke="rgb(55,42,115)" stroke-width="1" opacity="0.5725490196078431" d="M 26.5 321 L 27 323.5 L 26 323.5 L 26.5 321 Z " /><path fill="rgb(55,42,115)" stroke="rgb(55,42,115)" stroke-width="1" opacity="0.5725490196078431" d="M 485.5 321 L 486 323.5 L 484.5 327 L 484 324.5 L 485.5 321 Z " /><path fill="rgb(55,42,115)" stroke="rgb(55,42,115)" stroke-width="1" opacity="0.5725490196078431" d="M 31.5 337 L 34 343.5 L 33 343.5 L 31.5 337 Z " /><path fill="rgb(55,42,115)" stroke="rgb(55,42,115)" stroke-width="1" opacity="0.5725490196078431" d="M 480.5 337 L 481 338.5 L 476.5 349 L 476 347.5 L 480.5 337 Z " /><path fill="rgb(55,42,115)" stroke="rgb(55,42,115)" stroke-width="1" opacity="0.5725490196078431" d="M 34.5 345 Q 55.9 397.1 94.5 432 Q 122.4 458.1 160 474.5 L 158.5 475 Q 110.8 453.2 78 416.5 L 53 383.5 L 36 351.5 L 34.5 345 Z " /><path fill="rgb(55,42,115)" stroke="rgb(55,42,115)" stroke-width="1" opacity="0.5725490196078431" d="M 475.5 350 L 476 351.5 L 460.5 380 L 461 378.5 L 475.5 350 Z " /><path fill="rgb(55,42,115)" stroke="rgb(55,42,115)" stroke-width="1" opacity="0.5725490196078431" d="M 459.5 381 L 459 382.5 Q 441.6 412.1 416.5 434 Q 388.4 459.9 350.5 476 L 350.5 475 Q 399.1 454.1 432 417.5 Q 447.4 400.9 459.5 381 Z " /><path fill="rgb(55,42,115)" stroke="rgb(55,42,115)" stroke-width="1" opacity="0.5725490196078431" d="M 161.5 475 L 175 480.5 L 173.5 481 L 161.5 476 L 161.5 475 Z " /><path fill="rgb(55,42,115)" stroke="rgb(55,42,115)" stroke-width="1" opacity="0.5725490196078431" d="M 347.5 476 L 349 476.5 L 345.5 478 L 345.5 477 L 347.5 476 Z " /><path fill="rgb(55,42,115)" stroke="rgb(55,42,115)" stroke-width="1" opacity="0.5725490196078431" d="M 342.5 478 L 344 478.5 L 340.5 480 L 340.5 479 L 342.5 478 Z " /><path fill="rgb(55,42,115)" stroke="rgb(55,42,115)" stroke-width="1" opacity="0.5725490196078431" d="M 185.5 484 L 191 485.5 L 188.5 486 L 185.5 485 L 185.5 484 Z " /><path fill="rgb(55,42,115)" stroke="rgb(55,42,115)" stroke-width="1" opacity="0.5725490196078431" d="M 324.5 484 L 327 484.5 L 321.5 486 L 321.5 485 L 324.5 484 Z " /><path fill="rgb(55,42,115)" stroke="rgb(55,42,115)" stroke-width="1" opacity="0.5725490196078431" d="M 192.5 486 L 203 488.5 L 199.5 489 L 192.5 487 L 192.5 486 Z " /><path fill="rgb(55,42,115)" stroke="rgb(55,42,115)" stroke-width="1" opacity="0.5725490196078431" d="M 313.5 487 L 317 487.5 L 309.5 489 L 309.5 488 L 313.5 487 Z " /><path fill="rgb(55,42,115)" stroke="rgb(55,42,115)" stroke-width="1" opacity="0.5725490196078431" d="M 204.5 489 L 207 489.5 L 204.5 490 L 204.5 489 Z " /><path fill="rgb(55,42,115)" stroke="rgb(55,42,115)" stroke-width="1" opacity="0.5725490196078431" d="M 305.5 489 L 308 489.5 L 305.5 490 L 305.5 489 Z " /><path fill="rgb(55,42,115)" stroke="rgb(55,42,115)" stroke-width="1" opacity="0.5725490196078431" d="M 208.5 490 L 213 490.5 L 208.5 491 L 208.5 490 Z " /><path fill="rgb(55,42,115)" stroke="rgb(55,42,115)" stroke-width="1" opacity="0.5725490196078431" d="M 300.5 490 L 304 490.5 L 300.5 491 L 300.5 490 Z " /><path fill="rgb(55,42,115)" stroke="rgb(55,42,115)" stroke-width="1" opacity="0.5725490196078431" d="M 214.5 491 L 218 491.5 L 214.5 492 L 214.5 491 Z " /><path fill="rgb(55,42,115)" stroke="rgb(55,42,115)" stroke-width="1" opacity="0.5725490196078431" d="M 294.5 491 L 298 491.5 L 294.5 492 L 294.5 491 Z " /><path fill="rgb(55,42,115)" stroke="rgb(55,42,115)" stroke-width="1" opacity="0.5725490196078431" d="M 219.5 492 L 225 492.5 L 219.5 493 L 219.5 492 Z " /><path fill="rgb(55,42,115)" stroke="rgb(55,42,115)" stroke-width="1" opacity="0.5725490196078431" d="M 287.5 492 L 293 492.5 L 287.5 493 L 287.5 492 Z " /><path fill="rgb(55,42,115)" stroke="rgb(55,42,115)" stroke-width="1" opacity="0.5725490196078431" d="M 227.5 493 L 234 493.5 L 227.5 494 L 227.5 493 Z " /><path fill="rgb(55,42,115)" stroke="rgb(55,42,115)" stroke-width="1" opacity="0.5725490196078431" d="M 278.5 493 L 285 493.5 L 278.5 494 L 278.5 493 Z " /><path fill="rgb(55,42,115)" stroke="rgb(55,42,115)" stroke-width="1" opacity="0.5725490196078431" d="M 237.5 494 L 254 494.5 L 237.5 495 L 237.5 494 Z " /><path fill="rgb(55,42,115)" stroke="rgb(55,42,115)" stroke-width="1" opacity="0.5725490196078431" d="M 258.5 494 L 275 494.5 L 258.5 495 L 258.5 494 Z " /><path fill="rgb(0,0,0)" stroke="rgb(0,0,0)" stroke-width="1" opacity="0" d="M 0 0 L 512 0 L 512 512 L 0 512 L 0 0 Z M 237 17 L 236 18 L 227 18 L 226 19 L 214 20 L 196 24 L 159 37 Q 123 53 97 77 Q 58 111 36 161 L 23 200 L 18 227 L 18 236 L 17 237 L 17 276 L 18 277 L 19 293 L 24 317 L 32 342 Q 49 385 78 417 Q 111 453 159 475 L 196 488 L 220 493 L 237 494 L 238 495 L 275 495 L 276 494 L 293 493 L 317 488 L 342 480 Q 385 463 417 434 Q 454 400 476 352 L 489 313 L 493 293 L 494 276 L 495 275 L 495 237 L 494 236 L 493 220 L 488 196 L 480 171 Q 463 128 435 97 Q 401 58 352 36 Q 325 25 293 19 L 277 18 L 276 17 L 237 17 Z " /><path fill="rgb(56,43,115)" stroke="rgb(56,43,115)" stroke-width="1" opacity="0.996078431372549" d="M 253.5 17 L 259 17.5 L 253.5 18 L 253.5 17 Z " /><path fill="rgb(56,43,115)" stroke="rgb(56,43,115)" stroke-width="1" opacity="0.996078431372549" d="M 131.5 52 L 130.5 54 L 131.5 52 Z " /><path fill="rgb(56,43,115)" stroke="rgb(56,43,115)" stroke-width="1" opacity="0.996078431372549" d="M 380.5 52 L 381.5 54 L 380.5 52 Z " /><path fill="rgb(56,43,115)" stroke="rgb(56,43,115)" stroke-width="1" opacity="0.996078431372549" d="M 128.5 54 L 127.5 56 L 128.5 54 Z " /><path fill="rgb(56,43,115)" stroke="rgb(56,43,115)" stroke-width="1" opacity="0.996078431372549" d="M 383.5 54 L 384.5 56 L 383.5 54 Z " /><path fill="rgb(56,43,115)" stroke="rgb(56,43,115)" stroke-width="1" opacity="0.996078431372549" d="M 119.5 60 L 118.5 62 L 119.5 60 Z " /><path fill="rgb(56,43,115)" stroke="rgb(56,43,115)" stroke-width="1" opacity="0.996078431372549" d="M 392.5 60 L 393.5 62 L 392.5 60 Z " /><path fill="rgb(56,43,115)" stroke="rgb(56,43,115)" stroke-width="1" opacity="0.996078431372549" d="M 112.5 65 L 110.5 68 L 112.5 65 Z " /><path fill="rgb(56,43,115)" stroke="rgb(56,43,115)" stroke-width="1" opacity="0.996078431372549" d="M 399.5 65 L 401.5 68 L 399.5 65 Z " /><path fill="rgb(56,43,115)" stroke="rgb(56,43,115)" stroke-width="1" opacity="0.996078431372549" d="M 107.5 69 L 106.5 71 L 107.5 69 Z " /><path fill="rgb(56,43,115)" stroke="rgb(56,43,115)" stroke-width="1" opacity="0.996078431372549" d="M 404.5 69 L 405.5 71 L 404.5 69 Z " /><path fill="rgb(56,43,115)" stroke="rgb(56,43,115)" stroke-width="1" opacity="0.996078431372549" d="M 102.5 73 L 99.5 77 L 102.5 73 Z " /><path fill="rgb(56,43,115)" stroke="rgb(56,43,115)" stroke-width="1" opacity="0.996078431372549" d="M 409.5 73 L 412.5 77 L 409.5 73 Z " /><path fill="rgb(56,43,115)" stroke="rgb(56,43,115)" stroke-width="1" opacity="0.996078431372549" d="M 95.5 79 L 79.5 96 L 95.5 79 Z " /><path fill="rgb(56,43,115)" stroke="rgb(56,43,115)" stroke-width="1" opacity="0.996078431372549" d="M 417.5 80 L 431.5 95 L 417.5 80 Z " /><path fill="rgb(56,43,115)" stroke="rgb(56,43,115)" stroke-width="1" opacity="0.996078431372549" d="M 76.5 99 L 73.5 103 L 76.5 99 Z " /><path fill="rgb(56,43,115)" stroke="rgb(56,43,115)" stroke-width="1" opacity="0.996078431372549" d="M 435.5 99 L 438.5 103 L 435.5 99 Z " /><path fill="rgb(56,43,115)" stroke="rgb(56,43,115)" stroke-width="1" opacity="0.996078431372549" d="M 70.5 106 L 69.5 108 L 70.5 106 Z " /><path fill="rgb(56,43,115)" stroke="rgb(56,43,115)" stroke-width="1" opacity="0.996078431372549" d="M 441.5 106 L 442.5 108 L 441.5 106 Z " /><path fill="rgb(56,43,115)" stroke="rgb(56,43,115)" stroke-width="1" opacity="0.996078431372549" d="M 67.5 110 L 65.5 113 L 67.5 110 Z " /><path fill="rgb(56,43,115)" stroke="rgb(56,43,115)" stroke-width="1" opacity="0.996078431372549" d="M 444.5 110 L 446.5 113 L 444.5 110 Z " /><path fill="rgb(56,43,115)" stroke="rgb(56,43,115)" stroke-width="1" opacity="0.996078431372549" d="M 61.5 118 L 60.5 120 L 61.5 118 Z " /><path fill="rgb(56,43,115)" stroke="rgb(56,43,115)" stroke-width="1" opacity="0.996078431372549" d="M 450.5 118 L 451.5 120 L 450.5 118 Z " /><path fill="rgb(56,43,115)" stroke="rgb(56,43,115)" stroke-width="1" opacity="0.996078431372549" d="M 55.5 127 L 54.5 129 L 55.5 127 Z " /><path fill="rgb(56,43,115)" stroke="rgb(56,43,115)" stroke-width="1" opacity="0.996078431372549" d="M 456.5 127 L 457.5 129 L 456.5 127 Z " /><path fill="rgb(56,43,115)" stroke="rgb(56,43,115)" stroke-width="1" opacity="0.996078431372549" d="M 53.5 130 L 52.5 132 L 53.5 130 Z " /><path fill="rgb(56,43,115)" stroke="rgb(56,43,115)" stroke-width="1" opacity="0.996078431372549" d="M 458.5 130 L 459.5 132 L 458.5 130 Z " /><path fill="rgb(56,43,115)" stroke="rgb(56,43,115)" stroke-width="1" opacity="0.996078431372549" d="M 18.5 234 L 19 236.5 L 18 236.5 L 18.5 234 Z " /><path fill="rgb(56,43,115)" stroke="rgb(56,43,115)" stroke-width="1" opacity="0.996078431372549" d="M 493.5 234 L 494 236.5 L 493 236.5 L 493.5 234 Z " /><path fill="rgb(56,43,115)" stroke="rgb(56,43,115)" stroke-width="1" opacity="0.996078431372549" d="M 17.5 254 L 18 257.5 L 17 257.5 L 17.5 254 Z " /><path fill="rgb(56,43,115)" stroke="rgb(56,43,115)" stroke-width="1" opacity="0.996078431372549" d="M 18.5 275 L 19 277.5 L 18 277.5 L 18.5 275 Z " /><path fill="rgb(56,43,115)" stroke="rgb(56,43,115)" stroke-width="1" opacity="0.996078431372549" d="M 493.5 275 L 494 277.5 L 493 277.5 L 493.5 275 Z " /><path fill="rgb(56,43,115)" stroke="rgb(56,43,115)" stroke-width="1" opacity="0.996078431372549" d="M 459.5 380 L 458.5 382 L 459.5 380 Z " /><path fill="rgb(56,43,115)" stroke="rgb(56,43,115)" stroke-width="1" opacity="0.996078431372549" d="M 54.5 383 L 55.5 385 L 54.5 383 Z " /><path fill="rgb(56,43,115)" stroke="rgb(56,43,115)" stroke-width="1" opacity="0.996078431372549" d="M 457.5 383 L 456.5 385 L 457.5 383 Z " /><path fill="rgb(56,43,115)" stroke="rgb(56,43,115)" stroke-width="1" opacity="0.996078431372549" d="M 60.5 392 L 61.5 394 L 60.5 392 Z " /><path fill="rgb(56,43,115)" stroke="rgb(56,43,115)" stroke-width="1" opacity="0.996078431372549" d="M 451.5 392 L 450.5 394 L 451.5 392 Z " /><path fill="rgb(56,43,115)" stroke="rgb(56,43,115)" stroke-width="1" opacity="0.996078431372549" d="M 65.5 399 L 67.5 402 L 65.5 399 Z " /><path fill="rgb(56,43,115)" stroke="rgb(56,43,115)" stroke-width="1" opacity="0.996078431372549" d="M 446.5 399 L 444.5 402 L 446.5 399 Z " /><path fill="rgb(56,43,115)" stroke="rgb(56,43,115)" stroke-width="1" opacity="0.996078431372549" d="M 69.5 404 L 70.5 406 L 69.5 404 Z " /><path fill="rgb(56,43,115)" stroke="rgb(56,43,115)" stroke-width="1" opacity="0.996078431372549" d="M 442.5 404 L 441.5 406 L 442.5 404 Z " /><path fill="rgb(56,43,115)" stroke="rgb(56,43,115)" stroke-width="1" opacity="0.996078431372549" d="M 73.5 409 L 76.5 413 L 73.5 409 Z " /><path fill="rgb(56,43,115)" stroke="rgb(56,43,115)" stroke-width="1" opacity="0.996078431372549" d="M 438.5 409 L 435.5 413 L 438.5 409 Z " /><path fill="rgb(56,43,115)" stroke="rgb(56,43,115)" stroke-width="1" opacity="0.996078431372549" d="M 80.5 417 L 94.5 432 L 80.5 417 Z " /><path fill="rgb(56,43,115)" stroke="rgb(56,43,115)" stroke-width="1" opacity="0.996078431372549" d="M 431.5 417 L 417.5 432 L 431.5 417 Z " /><path fill="rgb(56,43,115)" stroke="rgb(56,43,115)" stroke-width="1" opacity="0.996078431372549" d="M 99.5 435 L 102.5 439 L 99.5 435 Z " /><path fill="rgb(56,43,115)" stroke="rgb(56,43,115)" stroke-width="1" opacity="0.996078431372549" d="M 412.5 435 L 409.5 439 L 412.5 435 Z " /><path fill="rgb(56,43,115)" stroke="rgb(56,43,115)" stroke-width="1" opacity="0.996078431372549" d="M 106.5 441 L 107.5 443 L 106.5 441 Z " /><path fill="rgb(56,43,115)" stroke="rgb(56,43,115)" stroke-width="1" opacity="0.996078431372549" d="M 405.5 441 L 404.5 443 L 405.5 441 Z " /><path fill="rgb(56,43,115)" stroke="rgb(56,43,115)" stroke-width="1" opacity="0.996078431372549" d="M 110.5 444 L 112.5 447 L 110.5 444 Z " /><path fill="rgb(56,43,115)" stroke="rgb(56,43,115)" stroke-width="1" opacity="0.996078431372549" d="M 401.5 444 L 399.5 447 L 401.5 444 Z " /><path fill="rgb(56,43,115)" stroke="rgb(56,43,115)" stroke-width="1" opacity="0.996078431372549" d="M 118.5 450 L 119.5 452 L 118.5 450 Z " /><path fill="rgb(56,43,115)" stroke="rgb(56,43,115)" stroke-width="1" opacity="0.996078431372549" d="M 393.5 450 L 392.5 452 L 393.5 450 Z " /><path fill="rgb(56,43,115)" stroke="rgb(56,43,115)" stroke-width="1" opacity="0.996078431372549" d="M 127.5 456 L 128.5 458 L 127.5 456 Z " /><path fill="rgb(56,43,115)" stroke="rgb(56,43,115)" stroke-width="1" opacity="0.996078431372549" d="M 384.5 456 L 383.5 458 L 384.5 456 Z " /><path fill="rgb(56,43,115)" stroke="rgb(56,43,115)" stroke-width="1" opacity="0.996078431372549" d="M 234.5 493 L 237 493.5 L 234.5 494 L 234.5 493 Z " /><path fill="rgb(56,43,115)" stroke="rgb(56,43,115)" stroke-width="1" opacity="0.996078431372549" d="M 275.5 493 L 278 493.5 L 275.5 494 L 275.5 493 Z " /><path fill="rgb(56,43,115)" stroke="rgb(56,43,115)" stroke-width="1" opacity="0.996078431372549" d="M 254.5 494 L 258 494.5 L 254.5 495 L 254.5 494 Z " /><path fill="rgb(71,48,128)" stroke="rgb(71,48,128)" stroke-width="1" opacity="1" d="M 252.5 49 L 276.5 50 L 277.5 51 L 291.5 52 Q 314.3 56.2 333.5 64 Q 376.4 82.1 406 113.5 Q 435 143.5 451 186.5 L 458 210.5 L 461 227.5 L 463 259.5 L 462 260.5 L 462 276.5 L 461 277.5 L 459 296.5 L 454 316.5 L 445 340.5 Q 427.3 378.8 398.5 406 Q 369.5 434 328.5 450 L 291.5 460 L 277.5 461 L 276.5 462 L 252.5 463 L 251.5 462 L 227.5 461 L 206.5 457 Q 186.5 452 169.5 444 Q 133.1 426.9 107 399.5 Q 78.3 370.2 62 328.5 L 53 296.5 L 51 277.5 L 50 276.5 L 50 259.5 Q 47.7 258.3 49 253.5 L 50 250.5 L 50 235.5 L 51 234.5 L 51 227.5 L 54 210.5 Q 58.9 189.4 67 171.5 Q 84.3 133.8 112.5 107 Q 139.3 80.8 176.5 65 L 195.5 58 L 215.5 53 L 233.5 51 L 234.5 50 L 251.5 50 L 252.5 49 Z M 227 111 L 225 112 Q 222 113 223 117 L 220 118 L 217 121 L 216 120 L 169 120 L 163 122 L 157 130 L 157 400 L 160 407 L 166 410 L 171 411 L 342 411 L 351 408 L 354 404 L 355 400 L 355 319 L 362 319 L 387 343 L 390 341 L 390 319 L 403 319 L 405 317 L 405 301 L 406 300 L 406 231 L 405 229 L 403 226 L 355 226 L 355 130 L 353 126 Q 350 121 344 120 L 297 120 L 296 121 L 291 117 Q 287 118 289 114 L 286 111 L 227 111 Z " /><path fill="rgb(245,172,92)" stroke="rgb(245,172,92)" stroke-width="1" opacity="1" d="M 165.5 121 L 216 121.5 Q 211.1 125.8 213 136 L 179.5 136 L 174 139.5 L 172 148.5 L 172 364.5 Q 174.5 366 173 371.5 L 176.5 376 L 178.5 377 L 333.5 377 L 338 373.5 L 340 364.5 L 340 316.5 L 339 315.5 L 339 305 L 354.5 305 L 355 305.5 L 355 384.5 Q 353.9 391.9 348.5 395 L 346.5 396 L 165.5 396 L 159 390.5 L 157 384.5 L 157 131.5 Q 158.5 125 163.5 122 L 165.5 121 Z " /><path fill="rgb(245,172,92)" stroke="rgb(245,172,92)" stroke-width="1" opacity="1" d="M 296.5 121 L 346.5 121 L 353 126.5 L 355 131.5 L 355 226 L 400.5 226 L 405 229.5 L 405 294.5 L 401.5 298 L 390 298 L 390 316.5 L 389 319 L 384.5 319 L 363.5 298 L 317.5 298 L 315 295.5 L 314 293.5 L 314 230.5 L 316.5 227 L 318.5 226 L 340 226 L 340 148.5 Q 337.5 147 339 141.5 L 335.5 137 L 332.5 136 L 299 136 Q 300.4 125.3 296.5 121 Z M 359 242 Q 349 259 344 281 Q 345 283 350 282 Q 353 279 353 274 L 355 272 L 367 272 L 372 282 Q 377 283 378 280 L 365 245 Q 364 241 359 242 Z " /><path fill="rgb(245,172,92)" stroke="rgb(245,172,92)" stroke-width="1" opacity="1" d="M 222.5 126 L 224.5 130 L 286.5 130 L 289 127.5 L 289.5 126 L 290 136 L 222.5 136 L 222 135.5 L 222.5 126 Z " /><path fill="rgb(245,172,92)" stroke="rgb(245,172,92)" stroke-width="1" opacity="1" d="M 360.5 255 L 364 265 L 357.5 265 L 357 263.5 L 360.5 255 Z " /><path fill="rgb(26,167,222)" stroke="rgb(26,167,222)" stroke-width="1" opacity="1" d="M 226.5 111 L 285.5 111 L 289 113.5 Q 287.5 117.9 290.5 117 L 297 122.5 Q 300.5 129 299 140.5 L 298 144.5 L 294.5 149 L 286.5 152 L 225.5 152 L 220.5 151 L 216 147.5 Q 211.2 141.3 213 128.5 Q 214.1 121.1 219.5 118 L 223 117 Q 222 113.2 224.5 112 L 226.5 111 Z M 223 126 L 221 129 L 221 140 L 222 142 L 226 144 L 287 144 L 289 143 L 291 140 L 291 129 L 290 126 L 289 128 L 287 130 L 226 130 L 223 126 Z " /><path fill="rgb(26,167,222)" stroke="rgb(26,167,222)" stroke-width="1" opacity="1" d="M 244.5 192 L 330.5 192 L 332 193.5 L 333 195.5 L 333 226 L 317.5 226 L 314 229.5 L 314 269.5 L 312.5 271 L 285.5 271 L 262.5 294 L 259.5 294 L 257 291.5 L 257 271 L 245.5 271 L 243 270 L 242 267.5 L 242 194.5 L 244.5 192 Z M 283 205 L 277 208 L 271 218 L 271 234 L 274 240 L 282 245 Q 291 247 295 243 Q 300 242 301 246 L 304 246 Q 307 245 306 240 L 301 236 L 303 230 L 302 217 L 299 211 Q 295 203 283 205 Z " /><path fill="rgb(26,167,222)" stroke="rgb(26,167,222)" stroke-width="1" opacity="1" d="M 283.5 212 Q 290.8 210.8 293 214.5 Q 296.8 219.2 295 229.5 L 291.5 227 L 288.5 226 L 285 228.5 L 285 232.5 L 290 237.5 L 283.5 238 L 280 235.5 Q 276.4 230.1 278 219.5 L 283.5 212 Z " /><path fill="rgb(205,209,212)" stroke="rgb(205,209,212)" stroke-width="1" opacity="1" d="M 221.5 128 L 222 139.5 L 221 139.5 L 221.5 128 Z " /><path fill="rgb(205,209,212)" stroke="rgb(205,209,212)" stroke-width="1" opacity="1" d="M 223.5 128 L 224.5 130 L 223.5 128 Z " /><path fill="rgb(205,209,212)" stroke="rgb(205,209,212)" stroke-width="1" opacity="1" d="M 290.5 128 L 291 139.5 L 290 139.5 L 290.5 128 Z " /><path fill="rgb(205,209,212)" stroke="rgb(205,209,212)" stroke-width="1" opacity="1" d="M 213.5 141 L 214 143.5 L 213 143.5 L 213.5 141 Z " /><path fill="rgb(205,209,212)" stroke="rgb(205,209,212)" stroke-width="1" opacity="1" d="M 298.5 141 L 299 143.5 L 298 143.5 L 298.5 141 Z " /><path fill="rgb(205,209,212)" stroke="rgb(205,209,212)" stroke-width="1" opacity="1" d="M 225.5 143 L 287 143.5 L 225.5 144 L 225.5 143 Z " /><path fill="rgb(205,209,212)" stroke="rgb(205,209,212)" stroke-width="1" opacity="1" d="M 214.5 145 L 217.5 149 L 225.5 152 L 286.5 152 L 291.5 151 L 296 147.5 L 297.5 145 L 298 147.5 L 292.5 154 L 289.5 155 L 222.5 155 L 215 149.5 L 214.5 145 Z " /><path fill="rgb(205,209,212)" stroke="rgb(205,209,212)" stroke-width="1" opacity="1" d="M 172.5 148 L 173 364.5 L 172 364.5 L 172.5 148 Z " /><path fill="rgb(205,209,212)" stroke="rgb(205,209,212)" stroke-width="1" opacity="1" d="M 339.5 148 L 340 225.5 L 339 225.5 L 339.5 148 Z " /><path fill="rgb(205,209,212)" stroke="rgb(205,209,212)" stroke-width="1" opacity="1" d="M 190.5 172 L 293.5 172 L 300 176.5 Q 301 183 296.5 184 L 188.5 184 L 186 183 L 185 176.5 L 187.5 173 L 190.5 172 Z " /><path fill="rgb(205,209,212)" stroke="rgb(205,209,212)" stroke-width="1" opacity="1" d="M 245.5 191 L 330 191.5 L 245.5 192 L 245.5 191 Z " /><path fill="rgb(205,209,212)" stroke="rgb(205,209,212)" stroke-width="1" opacity="1" d="M 190.5 194 L 242 194 L 242 267.5 L 243 270 L 245.5 271 L 257 271 L 257 281 L 245.5 281 L 243 280 Q 240.9 276.6 242 269 L 188.5 269 L 186 268 Q 184.4 265.9 185 260.5 L 189.5 257 L 241 257 L 241 247.5 L 240.5 247 L 188.5 247 Q 183.7 245.7 185 238.5 L 189.5 235 L 241 235 L 241 206 L 187.5 206 Q 183.5 204.5 185 197.5 L 190.5 194 Z " /><path fill="rgb(205,209,212)" stroke="rgb(205,209,212)" stroke-width="1" opacity="1" d="M 333.5 203 L 334 225.5 L 333 225.5 L 333.5 203 Z " /><path fill="rgb(205,209,212)" stroke="rgb(205,209,212)" stroke-width="1" opacity="1" d="M 295.5 207 L 298.5 211 L 295.5 207 Z " /><path fill="rgb(205,209,212)" stroke="rgb(205,209,212)" stroke-width="1" opacity="1" d="M 276.5 208 L 275.5 210 L 276.5 208 Z " /><path fill="rgb(205,209,212)" stroke="rgb(205,209,212)" stroke-width="1" opacity="1" d="M 285.5 211 L 288 211.5 L 285.5 212 L 285.5 211 Z " /><path fill="rgb(205,209,212)" stroke="rgb(205,209,212)" stroke-width="1" opacity="1" d="M 282.5 212 L 279.5 216 L 282.5 212 Z " /><path fill="rgb(205,209,212)" stroke="rgb(205,209,212)" stroke-width="1" opacity="1" d="M 295.5 221 L 296 228.5 L 295 228.5 L 295.5 221 Z " /><path fill="rgb(205,209,212)" stroke="rgb(205,209,212)" stroke-width="1" opacity="1" d="M 302.5 221 L 303 229.5 L 302 229.5 L 302.5 221 Z " /><path fill="rgb(205,209,212)" stroke="rgb(205,209,212)" stroke-width="1" opacity="1" d="M 291.5 227 L 292.5 229 L 291.5 227 Z " /><path fill="rgb(205,209,212)" stroke="rgb(205,209,212)" stroke-width="1" opacity="1" d="M 288.5 235 L 290.5 238 L 288.5 235 Z " /><path fill="rgb(205,209,212)" stroke="rgb(205,209,212)" stroke-width="1" opacity="1" d="M 303.5 237 L 305.5 240 L 303.5 237 Z " /><path fill="rgb(205,209,212)" stroke="rgb(205,209,212)" stroke-width="1" opacity="1" d="M 284.5 238 L 289 238.5 L 284.5 239 L 284.5 238 Z " /><path fill="rgb(205,209,212)" stroke="rgb(205,209,212)" stroke-width="1" opacity="1" d="M 274.5 239 L 277.5 243 L 274.5 239 Z " /><path fill="rgb(205,209,212)" stroke="rgb(205,209,212)" stroke-width="1" opacity="1" d="M 305.5 243 L 303.5 246 L 300 245.5 Q 304.3 245.8 305.5 243 Z " /><path fill="rgb(205,209,212)" stroke="rgb(205,209,212)" stroke-width="1" opacity="1" d="M 285.5 271 L 314 271 L 314 281 L 285.5 281 L 269 297.5 L 295.5 298 L 299 300.5 L 300 305.5 L 297.5 309 L 295.5 310 L 188.5 310 Q 183.7 308.8 185 301.5 L 189.5 298 L 257 298 L 257.5 292 Q 258.3 294.8 262.5 294 L 285.5 271 Z " /><path fill="rgb(205,209,212)" stroke="rgb(205,209,212)" stroke-width="1" opacity="1" d="M 354.5 271 L 366.5 271 L 368 272.5 L 366.5 272 L 354.5 272 L 353.5 273 L 354.5 271 Z " /><path fill="rgb(205,209,212)" stroke="rgb(205,209,212)" stroke-width="1" opacity="1" d="M 350.5 280 L 349.5 282 L 345 281.5 L 350.5 280 Z " /><path fill="rgb(205,209,212)" stroke="rgb(205,209,212)" stroke-width="1" opacity="1" d="M 370.5 280 L 376 281.5 L 371.5 282 L 370.5 280 Z " /><path fill="rgb(205,209,212)" stroke="rgb(205,209,212)" stroke-width="1" opacity="1" d="M 314.5 303 L 316.5 305 L 339 305 L 339 315.5 L 340 316.5 L 340 364.5 L 339 364.5 L 339 316 L 318.5 316 L 314 312.5 L 314.5 303 Z " /><path fill="rgb(205,209,212)" stroke="rgb(205,209,212)" stroke-width="1" opacity="1" d="M 189.5 320 L 257.5 320 L 261 323.5 L 262 326.5 L 259.5 331 L 257.5 332 L 188.5 332 Q 183.7 330.8 185 323.5 L 189.5 320 Z " /><path fill="rgb(205,209,212)" stroke="rgb(205,209,212)" stroke-width="1" opacity="1" d="M 274.5 320 L 322.5 320 L 327 323.5 Q 328.3 330.8 323.5 332 L 274.5 332 L 271 329.5 L 270 325.5 L 274.5 320 Z " /><path fill="rgb(205,209,212)" stroke="rgb(205,209,212)" stroke-width="1" opacity="1" d="M 173.5 369 L 178.5 373 L 333.5 373 L 338.5 369 L 339 371.5 L 335.5 376 L 333.5 377 L 178.5 377 L 174 373.5 L 173.5 369 Z " /><path fill="rgb(254,254,254)" stroke="rgb(254,254,254)" stroke-width="1" opacity="1" d="M 179.5 136 L 212.5 136 L 213 136.5 L 213 143.5 Q 214.1 150.9 219.5 154 L 222.5 155 L 289.5 155 L 297 149.5 Q 300 144.3 299 136 L 332.5 136 L 338 139.5 L 339 141.5 L 339 226 L 334 225.5 L 334 203.5 L 333 202.5 L 333 194.5 L 329.5 191 L 245.5 191 L 242.5 194 L 190.5 194 L 185 197.5 Q 183.5 204.5 187.5 206 L 241 206 L 241 235 L 189.5 235 L 185 238.5 Q 183.8 245.8 188.5 247 L 240.5 247 L 241 247.5 L 241 257 L 189.5 257 L 185 260.5 Q 184.4 265.9 186 268 L 188.5 269 L 242 269 Q 240.9 276.6 243 280 L 245.5 281 L 257 281 L 257 297.5 L 256.5 298 L 189.5 298 L 185 301.5 Q 183.8 308.8 188.5 310 L 295.5 310 L 299 307.5 L 300 302.5 L 297.5 299 L 295.5 298 L 269 297.5 L 285.5 281 L 314 281 L 314 312.5 L 316.5 315 L 318.5 316 L 339 316 L 339 368.5 L 335.5 372 L 333.5 373 L 178.5 373 L 173 368.5 L 173 141.5 L 176.5 137 L 179.5 136 Z M 191 172 L 188 173 L 185 177 L 186 183 L 189 184 L 297 184 Q 301 183 300 177 L 294 172 L 191 172 Z M 190 320 L 185 324 Q 184 331 189 332 L 258 332 L 260 331 L 262 327 L 261 324 L 258 320 L 190 320 Z M 275 320 L 270 326 L 271 330 L 275 332 L 324 332 Q 328 331 327 324 L 323 320 L 275 320 Z " /><path fill="rgb(254,254,254)" stroke="rgb(254,254,254)" stroke-width="1" opacity="1" d="M 222 136 L 289.5 136 Q 290.6 136.1 290 141.5 L 288.5 143 L 223.5 143 Q 220.5 141.4 222 136 Z " /><path fill="rgb(254,254,254)" stroke="rgb(254,254,254)" stroke-width="1" opacity="1" d="M 283.5 205 Q 296.1 204.4 300 212.5 L 302 217.5 L 302 232.5 L 301 235.5 L 306 240.5 L 306 242.5 Q 305 246 299.5 245 L 295.5 242 Q 292 246.5 282.5 245 L 274 238.5 Q 269 231.9 271 218.5 Q 272.9 210.8 278.5 207 L 283.5 205 Z M 286 211 L 283 212 L 278 218 L 278 233 L 279 235 L 285 239 Q 289 240 291 238 L 285 233 L 286 227 Q 291 226 294 229 Q 295 231 296 229 Q 297 220 294 216 Q 292 211 286 211 Z " /><path fill="rgb(254,254,254)" stroke="rgb(254,254,254)" stroke-width="1" opacity="1" d="M 358.5 242 Q 363 241 364 243.5 L 377 277.5 L 377 281 Q 371.6 282.5 370 279.5 L 366.5 271 L 354.5 271 L 353 272.5 Q 352.8 278.3 349.5 281 L 344 281 L 344 278.5 L 358.5 242 Z M 361 254 L 357 264 L 357 265 L 365 265 L 361 254 Z " /><path fill="rgb(56,43,115)" stroke="rgb(56,43,115)" stroke-width="1" opacity="1" d="M 236.5 18 L 275.5 18 L 276.5 19 L 298.5 21 L 326.5 28 L 348.5 36 Q 400.4 58.6 435 98.5 Q 464.3 131.2 481 176.5 L 489 204.5 L 493 227.5 L 493 236.5 L 494 237.5 L 494 274.5 L 493 275.5 L 493 284.5 L 492 285.5 L 491 297.5 L 486 319.5 Q 479.3 343.3 469 363.5 Q 447.4 405.4 413.5 435 Q 381.8 463.3 338.5 480 L 303.5 490 L 285.5 492 L 284.5 493 L 275.5 493 L 274.5 494 L 237.5 494 L 236.5 493 L 227.5 493 L 226.5 492 L 208.5 490 L 192.5 486 Q 169.8 479.7 150.5 470 Q 107.3 448.2 77 413.5 Q 48.7 381.8 32 338.5 L 22 303.5 L 20 285.5 L 19 284.5 L 19 275.5 L 18 274.5 L 18 237.5 L 19 236.5 L 19 227.5 L 20 226.5 L 22 208.5 L 26 192.5 Q 32.5 168.5 43 148.5 Q 64.6 106.6 98.5 77 Q 126.5 52 163.5 36 L 185.5 28 L 208.5 22 L 226.5 20 L 227.5 19 L 235.5 19 L 236.5 18 Z M 253 49 L 252 50 L 235 50 L 234 51 L 216 53 L 196 58 L 177 65 Q 139 81 113 107 Q 84 134 67 172 Q 59 189 54 211 L 51 228 L 51 235 L 50 236 L 50 251 L 49 254 Q 48 258 50 260 L 50 277 L 51 278 L 53 297 L 62 329 Q 78 370 107 400 Q 133 427 170 444 Q 186 452 207 457 L 228 461 L 252 462 L 253 463 L 277 462 L 278 461 L 292 460 L 329 450 Q 370 434 399 406 Q 427 379 445 341 L 454 317 L 459 297 L 461 278 L 462 277 L 462 261 L 463 260 L 461 228 L 458 211 L 451 187 Q 435 143 406 114 Q 376 82 334 64 Q 314 56 292 52 L 278 51 L 277 50 L 253 49 Z " /><path fill="rgb(56,43,115)" stroke="rgb(56,43,115)" stroke-width="1" opacity="1" d="M 404.5 303 L 405 316.5 L 402.5 319 L 390 319 L 390 306 L 400.5 306 L 404.5 303 Z " /><path fill="rgb(56,43,115)" stroke="rgb(56,43,115)" stroke-width="1" opacity="1" d="M 355 306 L 362.5 306 L 385.5 329 L 387.5 329 L 390 327.5 L 390 340.5 L 388.5 342 L 386.5 343 L 361.5 319 L 355 319 L 355 306 Z " /><path fill="rgb(56,43,115)" stroke="rgb(56,43,115)" stroke-width="1" opacity="1" d="M 157.5 388 L 162.5 395 L 166.5 397 L 345.5 397 L 354 390.5 L 354.5 388 L 355 399.5 L 354 403.5 L 350.5 408 L 341.5 411 L 170.5 411 L 165.5 410 L 160 407 Q 155.1 400.7 157.5 388 Z " /><path fill="rgb(113,43,118)" stroke="rgb(113,43,118)" stroke-width="1" opacity="1" d="M 401.5 226 L 405 228.5 L 402.5 227 L 401.5 226 Z " /><path fill="rgb(113,43,118)" stroke="rgb(113,43,118)" stroke-width="1" opacity="1" d="M 405.5 231 L 406 299.5 L 402.5 305 L 400.5 306 L 390 306 L 390 298 L 401.5 298 L 405 294.5 L 405.5 231 Z " /><path fill="rgb(113,43,118)" stroke="rgb(113,43,118)" stroke-width="1" opacity="1" d="M 314.5 294 L 317.5 298 L 363.5 298 L 384.5 319 L 389 319 L 389.5 317 L 390 326.5 Q 389.5 329.5 385.5 329 L 362.5 306 Q 356.2 307.8 354.5 305 L 316.5 305 L 314 302.5 L 314.5 294 Z " /></svg>